<?xml version="1.0" standalone="no"?>
<!DOCTYPE svg PUBLIC "-//W3C//DTD SVG 20010904//EN"
 "http://www.w3.org/TR/2001/REC-SVG-20010904/DTD/svg10.dtd">
<svg version="1.0" xmlns="http://www.w3.org/2000/svg"
 width="958.000000pt" height="1278.000000pt" viewBox="0 0 958.000000 1278.000000"
 preserveAspectRatio="xMidYMid meet">

<g transform="translate(0.000000,1278.000000) scale(0.100000,-0.100000)"
fill="#000000" stroke="none">
<path d="M4720 10669 c-75 -9 -146 -31 -190 -59 -8 -6 -37 -22 -65 -36 -83
-44 -145 -88 -151 -107 -3 -10 -23 -29 -45 -43 -21 -13 -39 -29 -39 -35 0 -5
6 -7 13 -4 6 4 -1 -5 -16 -19 -16 -15 -32 -24 -35 -22 -4 2 -19 -9 -32 -25
-14 -16 -44 -47 -67 -70 -23 -22 -47 -55 -54 -72 -7 -18 -18 -39 -24 -47 -29
-36 -78 -136 -91 -188 -25 -95 -30 -356 -9 -515 15 -119 20 -137 36 -137 10 0
21 -5 24 -10 4 -6 24 -22 45 -35 29 -19 43 -37 57 -75 10 -27 21 -50 25 -50
14 0 30 111 34 245 5 145 14 195 44 255 10 19 21 52 24 74 12 66 36 104 70
112 17 4 47 17 67 30 20 12 40 20 44 16 4 -4 13 2 21 12 12 17 14 18 14 3 0
-24 15 -21 34 8 9 14 35 35 57 47 23 13 56 31 73 40 17 9 40 17 51 17 11 0 14
-3 8 -6 -26 -10 -12 -24 17 -18 18 4 30 3 30 -4 0 -6 18 -8 45 -6 28 3 45 1
45 -6 0 -6 6 -9 13 -6 7 2 44 -1 82 -9 60 -11 72 -11 81 2 7 8 28 14 52 14 23
0 42 5 45 13 5 14 45 16 65 3 8 -4 10 -2 6 7 -4 12 4 13 46 6 28 -4 57 -6 64
-3 7 3 26 -1 42 -7 16 -7 33 -11 37 -10 4 1 7 -4 6 -11 -3 -21 12 -48 27 -48
8 0 14 -3 14 -8 0 -4 23 -15 51 -25 27 -10 59 -27 71 -39 14 -14 23 -17 30
-10 6 6 17 8 26 5 10 -4 13 -2 8 6 -6 9 0 10 21 6 21 -5 24 -4 13 4 -12 9 -10
11 12 11 15 0 30 5 33 10 3 6 11 10 16 10 6 0 7 -4 4 -10 -3 -5 -1 -10 4 -10
6 0 11 6 11 13 1 7 6 5 14 -5 7 -10 18 -18 24 -18 6 0 14 -5 18 -12 5 -8 0 -9
-14 -6 -28 8 -28 -3 -1 -22 28 -19 54 -79 41 -92 -7 -7 -14 -3 -21 11 -13 23
-36 29 -28 7 3 -8 -1 -17 -10 -20 -8 -4 -13 -13 -9 -21 3 -8 1 -17 -4 -20 -6
-4 -10 -15 -10 -27 0 -16 3 -18 13 -9 8 6 17 8 20 4 4 -3 -5 -14 -21 -23 -19
-12 -29 -14 -34 -6 -5 7 -8 5 -8 -5 0 -9 10 -29 23 -45 l22 -29 -35 22 c-19
12 -67 27 -105 34 -54 9 -75 18 -92 38 -17 19 -23 22 -23 10 0 -18 -78 -41
-180 -54 -30 -4 -61 -12 -67 -17 -7 -6 -19 -8 -27 -5 -8 3 -24 -5 -37 -19 -12
-13 -28 -24 -35 -24 -17 0 -25 -25 -11 -39 15 -15 -3 -14 -35 3 -15 8 -30 11
-33 6 -8 -14 -33 -1 -40 21 -4 12 -16 19 -30 19 -13 0 -28 6 -32 13 -30 46
-146 74 -297 70 -94 -2 -114 -5 -139 -24 -21 -15 -32 -18 -40 -10 -8 8 -7 11
5 11 9 0 19 4 22 9 12 18 -58 3 -80 -18 -12 -11 -26 -21 -31 -21 -5 0 -19 -10
-30 -22 -25 -28 -39 -68 -23 -68 6 0 10 -6 9 -12 -3 -27 2 -38 16 -38 8 0 15
7 15 15 0 9 6 12 17 8 12 -5 15 -2 10 10 -6 16 6 21 39 16 4 0 10 5 15 12 6
11 12 11 33 0 17 -10 42 -12 78 -8 60 7 128 -7 128 -27 0 -9 -24 -15 -80 -20
-44 -4 -84 -5 -89 -2 -12 8 -42 -4 -36 -13 2 -4 -6 -7 -18 -7 -18 1 -22 -5
-23 -33 -1 -22 -9 -41 -23 -52 -28 -23 -17 -28 65 -30 114 -1 142 -4 137 -11
-2 -5 5 -8 16 -8 39 0 21 -19 -21 -23 -24 -2 -6 -3 40 -2 45 1 79 -2 75 -5
-14 -13 -106 -40 -137 -41 -31 0 -31 0 -6 -11 69 -28 247 29 210 66 -17 17
-11 25 18 28 19 2 27 8 26 21 -1 10 0 16 4 13 8 -8 72 33 110 70 20 21 32 43
33 61 0 28 0 28 10 4 7 -17 15 -22 30 -18 15 4 19 2 15 -9 -3 -8 1 -14 10 -14
8 0 13 -4 9 -9 -5 -10 12 -26 30 -26 13 0 31 -39 55 -122 12 -40 26 -73 31
-73 5 0 9 -6 9 -14 0 -19 13 -27 27 -18 7 5 8 24 3 57 -8 52 -3 77 10 55 5 -7
23 -14 42 -15 18 -2 65 -14 103 -29 70 -26 125 -31 184 -20 22 5 30 11 27 20
-7 18 11 18 63 -1 27 -9 41 -10 41 -3 0 6 11 8 30 5 27 -6 30 -4 30 18 0 13
-8 29 -17 34 -15 9 -15 10 -2 11 8 0 22 16 29 35 9 22 19 34 27 31 9 -4 13 6
14 32 0 40 17 93 18 60 1 -10 8 -18 15 -18 12 0 15 -24 15 -136 0 -166 8 -232
25 -209 9 13 14 8 31 -35 11 -27 22 -50 26 -50 11 0 19 41 25 130 l6 85 -29
-32 c-15 -17 -33 -39 -40 -50 -9 -14 -9 -10 -1 22 10 41 43 85 63 85 7 0 20
28 30 63 9 34 24 84 33 111 34 112 49 453 24 576 -17 85 -40 164 -58 198 -8
15 -14 32 -14 38 0 5 -16 25 -35 44 -19 19 -35 38 -35 43 0 31 -142 163 -163
150 -6 -3 -7 -1 -3 5 6 11 -6 17 -18 10 -3 -2 -20 11 -38 28 -41 39 -62 48
-133 59 -22 4 -49 11 -60 15 -50 22 -143 58 -175 68 -34 11 -56 16 -129 28
-19 3 -46 10 -60 16 -37 14 -251 18 -351 7z m1024 -1011 c-8 -28 -12 -33 -20
-25 -9 8 6 47 17 47 6 0 7 -10 3 -22z m6 -239 c0 -11 -4 -18 -10 -14 -5 3 -7
12 -3 20 7 21 13 19 13 -6z m50 1 c0 -5 -2 -10 -4 -10 -3 0 -8 5 -11 10 -3 6
-1 10 4 10 6 0 11 -4 11 -10z m-1170 -38 c0 -10 -150 -45 -158 -37 -3 2 15 14
39 25 44 20 119 27 119 12z m1104 -18 c8 -21 8 -24 -3 -24 -5 0 -11 9 -14 20
-6 24 8 27 17 4z m-350 -15 c-5 -9 1 -10 20 -5 15 4 26 2 26 -4 0 -5 -20 -10
-45 -10 -39 0 -44 2 -33 15 15 17 42 20 32 4z m-84 -89 c0 -5 -4 -10 -10 -10
-5 0 -10 5 -10 10 0 6 5 10 10 10 6 0 10 -4 10 -10z m27 -46 c-3 -3 -12 -4
-19 -1 -8 3 -5 6 6 6 11 1 17 -2 13 -5z"/>
<path d="M5572 9728 c6 -18 28 -21 28 -4 0 9 -7 16 -16 16 -9 0 -14 -5 -12
-12z"/>
<path d="M5615 9680 c3 -5 10 -10 16 -10 5 0 9 5 9 10 0 6 -7 10 -16 10 -8 0
-12 -4 -9 -10z"/>
<path d="M4431 9436 c2 -2 15 -9 29 -15 24 -11 24 -11 6 3 -16 13 -49 24 -35
12z"/>
<path d="M3934 9225 c-6 -15 8 -94 25 -135 6 -17 10 -19 10 -8 1 10 8 38 17
64 15 45 15 47 -7 70 -26 28 -37 30 -45 9z"/>
<path d="M5310 9160 c-25 -16 3 -31 68 -37 57 -5 159 4 149 13 -2 3 -41 9 -87
14 -45 5 -90 12 -99 14 -9 3 -23 1 -31 -4z"/>
<path d="M4031 9041 c-13 -23 -14 -51 -3 -51 14 0 32 23 32 41 0 27 -18 32
-29 10z"/>
<path d="M5167 9024 c-9 -9 4 -36 35 -72 43 -50 34 -129 -11 -88 -10 9 -22 16
-28 16 -6 0 -16 7 -23 15 -16 20 -64 19 -81 -1 -9 -11 -23 -14 -45 -11 -26 4
-34 1 -44 -18 l-13 -24 -42 24 c-53 32 -85 32 -119 0 -22 -20 -25 -28 -16 -45
19 -36 80 -55 80 -25 0 8 7 15 15 15 8 0 15 -7 15 -16 0 -18 64 -81 91 -89 11
-4 17 -9 15 -13 -2 -4 27 -6 65 -6 53 1 69 -2 69 -12 0 -22 31 -16 37 6 5 19
43 29 43 11 0 -11 31 -24 39 -16 3 3 0 10 -7 14 -10 6 -8 14 8 34 12 15 18 31
15 37 -3 5 -1 10 6 10 7 0 9 3 6 7 -4 3 -2 12 3 18 12 15 3 45 -14 45 -7 0 -6
3 2 9 11 7 11 11 -2 24 -9 8 -16 20 -16 25 0 6 -12 37 -27 71 -26 56 -40 70
-56 55z m103 -208 c0 -3 -4 -8 -10 -11 -5 -3 -10 -1 -10 4 0 6 5 11 10 11 6 0
10 -2 10 -4z"/>
<path d="M5810 8942 c0 -47 3 -62 14 -62 8 0 17 -6 20 -12 2 -7 4 13 4 44 -1
43 -6 62 -20 74 -17 16 -18 15 -18 -44z"/>
<path d="M5283 8777 c0 -8 13 -14 34 -14 28 -1 32 1 22 13 -14 18 -56 18 -56
1z"/>
<path d="M5730 8775 c0 -10 -10 -15 -31 -15 -29 0 -31 -2 -25 -27 5 -23 4 -25
-4 -10 -8 12 -18 15 -36 11 -16 -4 -24 -2 -24 7 0 11 -2 11 -9 1 -6 -10 -10
-10 -21 3 -7 8 -21 15 -32 15 -23 0 -43 -43 -22 -48 17 -4 19 -23 2 -19 -7 1
-15 5 -18 9 -3 4 -16 5 -29 1 -16 -4 -21 -11 -18 -24 3 -10 -2 -20 -11 -24
-11 -4 -12 -9 -4 -17 8 -8 8 -18 -2 -37 -14 -30 -13 -74 2 -79 6 -2 8 -10 5
-18 -3 -8 0 -14 6 -14 6 0 11 5 11 11 0 5 5 7 10 4 8 -5 8 -11 0 -19 -15 -19
-2 -76 16 -69 8 3 14 -1 14 -11 0 -17 -24 -17 -49 -2 -11 7 -13 5 -8 -8 5 -14
3 -17 -8 -12 -8 3 -14 2 -14 -2 1 -4 1 -17 0 -29 -1 -29 -31 -31 -31 -3 0 15
-7 20 -26 20 -23 0 -24 2 -10 15 10 10 13 26 9 50 -6 36 -1 40 55 38 23 -1 12
34 -20 66 -29 28 -33 30 -40 14 -3 -10 -7 -13 -7 -8 -2 16 -73 46 -106 45 -16
0 -52 4 -80 11 -50 11 -114 15 -170 9 -16 -1 -44 3 -62 11 -30 12 -41 10 -142
-24 -61 -20 -123 -37 -139 -37 -31 0 -55 -21 -67 -58 -8 -29 29 -46 60 -27 11
7 62 21 113 30 75 15 100 16 131 7 21 -7 69 -12 107 -12 70 0 165 -20 132 -28
-10 -2 -18 -8 -18 -14 0 -5 -7 -8 -15 -5 -8 4 -26 0 -41 -8 -15 -7 -33 -11
-40 -8 -8 3 -14 0 -14 -7 0 -9 -14 -11 -50 -7 -33 4 -62 1 -85 -9 -37 -15 -42
-23 -24 -41 16 -16 3 -32 -21 -26 -32 9 -23 -14 11 -26 17 -6 28 -15 24 -21
-12 -19 25 -23 45 -5 12 11 20 13 20 6 0 -29 104 -44 200 -28 57 10 73 20 84
52 3 11 24 40 45 65 42 49 64 47 64 -4 0 -14 4 -26 9 -26 6 0 8 -8 6 -17 -5
-23 22 -49 45 -45 12 2 15 -1 11 -12 -4 -10 -1 -16 9 -16 10 0 14 -9 12 -32
-2 -18 -3 -39 -4 -47 -1 -11 -4 -11 -16 -1 -21 17 -32 4 -17 -20 16 -26 15
-33 -3 -26 -8 3 -15 1 -15 -5 0 -6 -7 -9 -15 -5 -8 3 -15 0 -15 -6 0 -7 -7 -3
-15 8 -15 18 -15 18 -29 0 -10 -13 -12 -25 -6 -42 7 -17 6 -22 -4 -18 -7 3
-20 -4 -30 -15 -10 -11 -24 -18 -29 -14 -26 16 -82 14 -94 -3 -12 -16 -13 -17
-13 -1 0 9 -7 17 -16 17 -8 0 -12 -4 -9 -10 12 -20 -5 -28 -41 -20 -27 6 -41
5 -51 -6 -19 -18 -33 -18 -33 1 0 8 -7 15 -15 15 -8 0 -15 -7 -15 -15 0 -15
-19 -19 -72 -15 -15 1 -33 -2 -40 -6 -7 -5 -25 -7 -40 -5 -16 1 -28 -2 -28 -8
0 -16 -42 -13 -79 5 -18 9 -41 14 -51 11 -10 -3 -21 0 -23 7 -3 6 -35 27 -73
46 -38 19 -75 41 -82 48 -7 6 -20 12 -27 12 -8 0 -20 9 -28 21 -8 11 -16 16
-18 10 -3 -7 -19 -1 -41 14 -20 14 -43 25 -50 25 -22 0 -65 34 -61 48 3 6 -1
12 -7 12 -8 0 -10 -9 -6 -25 4 -14 2 -25 -4 -25 -5 0 -10 -5 -10 -11 0 -6 6
-9 14 -6 15 6 26 -12 26 -43 0 -11 33 -52 73 -92 39 -41 99 -102 132 -137 37
-40 80 -73 110 -87 51 -24 119 -77 110 -86 -3 -2 11 -11 31 -18 29 -12 35 -19
31 -37 -3 -16 1 -23 11 -23 8 0 25 -11 38 -26 13 -14 24 -23 24 -20 0 3 14 0
30 -6 19 -6 32 -19 36 -34 4 -14 15 -29 25 -34 10 -6 16 -17 13 -24 -4 -10 5
-16 26 -21 23 -5 29 -10 21 -18 -16 -16 -14 -27 4 -21 8 4 15 2 15 -4 0 -11
88 -21 92 -11 2 4 18 10 36 14 37 8 44 -10 14 -36 -16 -13 -32 -17 -84 -20 -9
0 -20 -9 -23 -20 -4 -10 -11 -19 -16 -19 -5 0 -9 -7 -9 -15 0 -8 -4 -15 -10
-15 -5 0 -6 -8 -3 -17 5 -12 2 -15 -10 -10 -9 3 -19 2 -22 -2 -3 -5 2 -11 10
-15 8 -3 12 -12 9 -20 -3 -9 5 -18 23 -25 l28 -11 -32 6 c-19 3 -33 1 -33 -4
0 -6 15 -14 33 -18 28 -6 30 -8 12 -15 -13 -5 -5 -6 20 -2 22 3 49 9 60 14 18
7 18 8 -4 8 -43 1 -9 21 48 28 29 3 48 9 43 12 -5 3 -12 16 -16 29 -4 12 -12
22 -17 22 -6 0 -2 11 8 24 10 13 23 21 28 18 14 -9 65 -9 65 1 0 4 9 7 21 7
11 0 17 5 14 10 -4 6 -21 8 -39 5 -23 -5 -36 -2 -45 9 -11 13 -9 17 11 27 16
7 24 18 23 32 -3 23 -5 24 -42 12 -18 -5 -22 -3 -17 9 5 14 62 46 82 46 10 0
48 34 72 64 14 18 13 19 -7 14 -22 -6 -41 16 -23 27 6 4 10 1 10 -5 0 -6 4 -9
10 -5 5 3 7 12 3 20 -3 8 0 15 6 15 6 0 11 11 11 23 0 26 27 57 51 58 8 0 6 4
-6 9 -17 7 -17 9 -3 9 17 1 68 49 68 64 0 7 38 65 50 77 16 15 40 62 40 78 0
10 4 22 9 28 5 5 23 43 40 85 16 42 43 96 60 121 33 48 38 64 20 52 -6 -3 -15
0 -20 7 -7 11 -9 10 -9 -3 0 -11 -8 -18 -20 -18 -12 0 -17 5 -14 14 3 8 0 17
-6 21 -9 6 -9 10 1 16 7 4 10 11 6 15 -3 4 -13 2 -20 -5 -11 -9 -17 -7 -28 6
-8 9 -9 14 -2 10 7 -4 14 1 18 13 3 11 11 20 16 20 5 0 9 7 9 15 0 15 16 20
55 17 13 -2 16 1 8 6 -10 6 -9 16 4 45 17 37 38 48 45 25 7 -20 28 2 28 28 0
14 6 35 14 47 8 12 17 52 21 90 4 37 12 67 17 67 5 0 8 6 5 13 -2 6 2 27 9 45
7 18 9 30 4 27 -6 -3 -10 1 -10 9 0 9 -7 16 -15 16 -8 0 -15 -7 -15 -15z
m-230 -421 c0 -8 -4 -12 -10 -9 -5 3 -10 10 -10 16 0 5 5 9 10 9 6 0 10 -7 10
-16z m-415 -994 c19 -8 19 -9 -2 -9 -12 -1 -25 4 -28 9 -7 12 2 12 30 0z m25
-85 c0 -8 -4 -15 -10 -15 -5 0 -10 7 -10 15 0 8 5 15 10 15 6 0 10 -7 10 -15z"/>
<path d="M5270 8670 c0 -5 10 -10 23 -10 18 0 19 2 7 10 -19 13 -30 13 -30 0z"/>
<path d="M5345 8650 c3 -5 8 -10 11 -10 2 0 4 5 4 10 0 6 -5 10 -11 10 -5 0
-7 -4 -4 -10z"/>
<path d="M4062 8630 c0 -14 2 -19 5 -12 2 6 2 18 0 25 -3 6 -5 1 -5 -13z"/>
<path d="M5295 8620 c-3 -5 -2 -10 4 -10 5 0 13 5 16 10 3 6 2 10 -4 10 -5 0
-13 -4 -16 -10z"/>
<path d="M5656 8313 c-6 -14 -5 -15 5 -6 7 7 10 15 7 18 -3 3 -9 -2 -12 -12z"/>
<path d="M5621 8274 c0 -11 3 -14 6 -6 3 7 2 16 -1 19 -3 4 -6 -2 -5 -13z"/>
<path d="M4106 7983 c-4 -5 -11 -8 -14 -9 -4 0 -15 -4 -26 -9 -11 -5 -26 -4
-37 3 -27 17 -53 15 -78 -7 -12 -10 -36 -29 -55 -42 -18 -12 -42 -36 -52 -52
-10 -16 -52 -53 -92 -84 -39 -30 -96 -79 -125 -108 -29 -29 -75 -68 -103 -87
-65 -43 -144 -112 -144 -127 0 -6 -8 -11 -17 -11 -9 0 -24 -6 -32 -14 -15 -12
-64 -29 -171 -56 -78 -19 -102 -31 -95 -48 5 -13 3 -13 -13 1 -29 26 -50 22
-25 -5 29 -34 48 -87 35 -100 -8 -8 -13 1 -18 28 -6 34 -32 74 -49 74 -3 0 -3
-12 0 -27 5 -25 4 -24 -9 5 -13 28 -19 32 -38 26 -13 -4 -32 -13 -43 -20 -11
-8 -38 -14 -60 -14 -22 0 -50 -6 -61 -14 -11 -8 -42 -17 -69 -21 -77 -12 -155
-52 -328 -166 -32 -22 -60 -39 -62 -39 -3 0 -14 -8 -24 -17 -11 -10 -26 -23
-33 -28 -73 -57 -112 -91 -177 -156 -64 -63 -87 -96 -134 -189 -61 -117 -79
-163 -102 -245 -78 -284 -108 -396 -114 -430 -12 -61 -62 -264 -77 -317 -8
-26 -14 -57 -14 -70 0 -22 -16 -98 -45 -213 -8 -27 -21 -79 -30 -115 -9 -36
-21 -78 -26 -95 -6 -16 -14 -67 -19 -113 -5 -45 -13 -97 -19 -115 -13 -43 -30
-144 -41 -247 -5 -47 -16 -116 -24 -155 -9 -38 -16 -78 -16 -87 0 -9 -5 -29
-12 -45 -6 -15 -12 -32 -12 -36 -1 -4 -6 -11 -11 -15 -30 -20 -93 -154 -96
-202 -1 -23 -2 -22 -8 5 l-6 30 -26 -45 c-14 -25 -31 -60 -38 -77 -8 -18 -17
-31 -21 -28 -18 11 -102 -170 -115 -247 -4 -24 -23 -72 -41 -108 -19 -36 -41
-90 -49 -121 -8 -31 -23 -71 -33 -90 -12 -20 -26 -82 -37 -154 -9 -66 -23
-146 -31 -178 -8 -32 -14 -80 -14 -106 0 -26 -7 -70 -15 -97 -8 -27 -15 -62
-15 -77 0 -16 -13 -83 -29 -150 -16 -67 -32 -149 -36 -182 -3 -33 -10 -73 -15
-90 -5 -16 -11 -88 -14 -158 -3 -70 -9 -133 -13 -140 -11 -18 -21 -228 -12
-262 4 -16 10 -67 14 -113 3 -46 10 -93 14 -105 13 -33 37 -343 34 -426 -1
-24 2 -51 6 -60 5 -9 12 -45 16 -81 4 -36 15 -87 25 -115 11 -27 22 -68 26
-90 4 -22 27 -80 52 -130 25 -49 68 -135 95 -190 68 -136 191 -298 345 -454
l130 -131 311 0 c176 0 311 4 311 9 0 5 -13 68 -30 140 -16 72 -27 138 -24
146 4 8 17 18 30 21 13 3 24 10 24 15 0 5 9 9 20 9 11 0 20 5 20 11 0 5 16 17
35 25 19 8 47 28 63 46 15 17 45 44 66 59 21 16 36 29 33 29 -3 0 8 13 25 30
16 16 36 30 44 30 8 0 17 7 20 15 4 8 17 15 30 15 l24 0 -21 -42 c-12 -24 -59
-108 -104 -188 -94 -165 -151 -277 -171 -332 l-13 -38 1983 0 1982 0 14 52
c16 63 67 152 110 193 18 17 40 42 51 57 25 35 52 191 46 271 -6 89 -50 288
-68 312 -4 6 -13 75 -19 155 -8 89 -24 191 -42 265 -16 66 -34 140 -39 165 -5
25 -14 53 -19 62 -5 10 -14 59 -20 110 -17 153 -41 342 -45 348 -2 4 -6 49 -9
101 -11 198 -48 380 -115 569 -50 140 -54 201 -16 218 46 21 66 16 240 -63 28
-12 66 -30 87 -39 20 -9 52 -16 72 -16 20 0 62 -9 93 -20 32 -11 74 -20 95
-20 20 0 49 -5 65 -11 15 -7 61 -13 102 -14 58 -2 84 2 124 19 56 25 251 191
288 246 13 19 26 37 29 40 15 14 64 118 76 159 7 25 20 66 30 91 47 127 89
425 64 455 -6 7 -10 39 -9 71 2 33 -1 69 -5 81 -5 15 -1 27 15 42 13 12 20 27
17 38 -5 17 -1 18 51 10 49 -8 99 -10 230 -8 l35 1 -24 25 -24 26 41 -3 c23
-2 39 -6 36 -11 -2 -4 9 -7 26 -7 16 0 32 4 36 10 3 5 12 7 19 4 16 -6 30 22
16 31 -6 4 -10 11 -10 17 0 6 9 3 19 -6 15 -14 23 -15 33 -7 7 6 23 19 36 29
25 19 40 87 27 119 -5 10 -7 26 -6 36 3 27 -35 55 -109 80 -10 4 -9 6 5 6 58
2 135 -60 150 -122 8 -29 35 -37 35 -11 0 9 -5 34 -12 56 -13 44 -81 98 -124
98 -13 0 -24 4 -24 10 0 5 -19 9 -42 9 -61 -1 -89 5 -102 22 -6 8 -27 25 -47
37 l-37 22 -28 -23 c-16 -13 -39 -26 -51 -29 -20 -5 -21 -4 -10 19 8 18 8 29
-1 44 -23 36 -14 81 28 139 56 77 63 95 68 181 l4 76 -39 40 -38 40 -91 -2
c-50 -1 -96 -5 -102 -9 -6 -3 -13 -2 -17 4 -4 6 -12 6 -24 -2 -16 -10 -29 -4
-85 36 -96 68 -98 72 -78 181 9 53 16 148 16 230 1 117 -4 160 -27 261 -24
109 -25 126 -14 165 7 24 14 95 16 157 3 109 1 116 -28 177 -17 35 -31 69 -31
76 0 41 -246 408 -341 510 -27 27 -129 98 -169 116 -94 42 -189 89 -208 104
-13 10 -32 35 -42 54 -21 41 -79 105 -96 105 -16 0 -89 80 -109 121 -19 36
-25 45 -93 146 -23 34 -42 66 -42 72 0 5 -12 19 -26 30 -17 13 -43 62 -76 143
-70 174 -99 223 -181 309 -85 89 -125 118 -138 98 -9 -16 -28 -94 -64 -269
-14 -69 -34 -162 -45 -207 -11 -45 -20 -99 -20 -120 0 -28 -3 -34 -10 -23 -8
12 -10 12 -11 -5 0 -11 -3 -15 -5 -9 -7 17 -56 3 -61 -17 -3 -11 -10 -19 -15
-19 -5 0 -6 -5 -3 -10 3 -6 -6 -15 -20 -20 -34 -13 -48 -13 -40 0 15 23 -5 46
-43 48 -41 3 -35 -13 8 -21 18 -3 13 -5 -15 -6 -35 -2 -37 -3 -17 -11 23 -10
30 -30 10 -30 -9 0 -9 -3 0 -12 7 -7 12 -22 12 -35 0 -13 5 -23 11 -23 8 0 8
-5 -1 -15 -7 -8 -21 -15 -31 -15 -10 0 -21 -5 -25 -11 -4 -7 0 -9 13 -5 23 7
59 -16 49 -33 -4 -7 -17 -9 -29 -6 -20 5 -20 5 -4 -5 21 -14 91 -4 82 11 -8
12 9 11 40 -3 18 -8 24 -17 20 -29 -6 -19 21 -54 43 -54 30 0 12 -22 -38 -47
-56 -27 -270 -108 -286 -108 -5 0 -43 32 -84 71 -98 92 -190 161 -380 282
-140 90 -265 183 -374 279 -31 27 -42 47 -58 103 -28 105 -31 149 -15 273 13
103 12 112 -3 112 -9 0 -20 -3 -24 -7z m1296 -665 c-3 -14 -7 -16 -18 -7 -11
9 -14 8 -14 -2 0 -10 -3 -10 -12 -1 -15 15 -1 28 30 28 13 0 18 -6 14 -18z
m-44 -26 c2 -7 -6 -12 -17 -12 -21 0 -27 11 -14 24 9 9 26 2 31 -12z m26 -35
c-7 -23 -22 -37 -39 -36 -5 0 -4 3 3 6 10 4 10 8 1 19 -13 16 -39 2 -39 -22 0
-8 -7 -14 -15 -14 -17 0 -18 4 -9 38 6 21 11 23 51 18 36 -3 43 -1 39 10 -3 9
-1 12 5 9 5 -4 7 -16 3 -28z m-2366 -158 c1 -75 2 -140 3 -145 4 -26 -2 -64
-11 -59 -5 3 -8 80 -7 190 1 101 5 177 8 167 4 -9 7 -78 7 -153z m2315 80 c-8
-8 -16 -8 -30 0 -16 11 -16 11 5 6 14 -4 22 -2 22 6 0 7 3 9 7 6 4 -4 2 -12
-4 -18z m-1905 -274 c-1 -25 -5 -45 -9 -45 -3 0 -4 -12 -1 -26 4 -20 1 -25 -9
-22 -14 5 -22 58 -8 58 4 0 5 9 2 19 -4 17 11 61 22 61 3 0 4 -20 3 -45z m-18
-119 c0 -3 -4 -8 -10 -11 -5 -3 -10 -1 -10 4 0 6 5 11 10 11 6 0 10 -2 10 -4z
m-364 -133 c-11 -29 -17 -6 -9 33 7 36 8 37 11 11 2 -16 1 -36 -2 -44z m314
-60 c-10 -16 -11 -15 -6 7 3 14 6 32 7 40 1 8 4 5 6 -7 2 -12 -1 -30 -7 -40z
m-334 -60 c-4 -21 -2 -44 2 -51 6 -10 11 -1 16 26 l6 40 62 -17 c39 -10 54
-17 40 -19 -20 -3 -26 -13 -23 -34 0 -4 -3 -18 -9 -32 -8 -22 -6 -26 18 -35
15 -5 22 -10 16 -10 -24 -2 -104 41 -123 66 -22 27 -29 103 -10 103 7 0 9 -13
5 -37z m295 -106 c-10 -9 -11 -8 -5 6 3 10 9 15 12 12 3 -3 0 -11 -7 -18z
m1529 -516 c36 -11 94 -37 129 -58 78 -46 200 -158 238 -218 32 -51 30 -50
138 -65 105 -14 145 -25 186 -53 29 -19 34 -29 37 -67 2 -24 -1 -63 -7 -86 -6
-23 -11 -140 -11 -260 -1 -121 -5 -225 -11 -236 -15 -28 -87 -60 -150 -65 -67
-6 -140 9 -181 39 l-29 20 -63 -60 c-34 -33 -83 -73 -109 -90 l-47 -29 59 -56
c40 -39 71 -59 102 -67 81 -21 106 -30 150 -58 90 -57 196 -111 254 -128 66
-21 92 -43 195 -168 109 -131 144 -184 131 -200 -9 -11 -9 -16 0 -22 8 -5 10
-3 4 7 -5 8 -4 11 0 6 13 -11 16 -45 5 -52 -6 -3 -7 1 -4 10 6 14 0 16 -32 13
-31 -2 -39 -7 -45 -30 -4 -15 -14 -35 -23 -44 -10 -10 -14 -24 -10 -36 4 -13
2 -18 -4 -14 -6 4 -19 -2 -29 -12 -10 -10 -30 -23 -45 -30 -16 -6 -28 -18 -28
-27 0 -8 -13 -21 -29 -29 -15 -8 -35 -26 -45 -40 -28 -43 -49 -48 -118 -31
-64 17 -141 63 -152 90 -6 16 13 55 26 55 5 0 8 5 8 11 0 7 -11 9 -27 6 -16
-3 -40 -3 -56 0 -29 6 -90 61 -81 74 2 4 -5 10 -16 14 -11 3 -20 11 -20 17 0
5 -6 8 -12 6 -16 -6 -41 19 -33 32 3 5 4 10 1 10 -11 0 -66 -37 -61 -41 2 -3
-4 -5 -15 -6 -19 -2 -80 58 -80 79 0 6 -3 9 -6 6 -8 -9 32 -82 66 -121 36 -41
120 -100 265 -184 130 -77 140 -88 115 -123 -10 -14 -20 -36 -21 -50 -5 -31
-58 -63 -91 -55 -29 7 -105 78 -89 83 16 5 14 49 -4 56 -8 3 -15 10 -15 17 0
24 -45 48 -90 49 -53 0 -75 12 -67 34 5 11 1 16 -12 16 -28 0 -51 11 -51 24
-1 25 -53 49 -112 52 -56 2 -58 1 -52 -19 9 -31 53 -97 64 -97 6 0 10 -7 10
-15 0 -21 -37 -19 -49 3 -6 9 -11 13 -11 7 0 -5 -7 0 -15 13 -13 17 -23 21
-56 18 -74 -7 -89 37 -89 266 0 105 1 111 40 196 68 147 84 177 105 186 11 5
29 23 40 40 16 24 29 32 58 34 31 3 39 -1 46 -20 22 -53 9 10 -15 76 -17 47
-24 82 -20 105 5 30 3 33 -17 26 -12 -3 -60 -9 -107 -12 -90 -5 -236 18 -312
51 -34 14 -38 20 -38 51 0 39 4 41 40 20 14 -8 32 -14 40 -15 8 0 -4 9 -27 21
-42 21 -43 22 -43 73 0 28 5 58 10 66 5 8 10 10 10 4 0 -5 7 -19 15 -30 10
-12 8 -3 -4 23 -19 39 -20 48 -9 152 l12 111 35 -5 c20 -3 30 -2 24 1 -26 12
-11 52 62 163 42 62 74 115 73 116 -2 1 -28 5 -58 8 -30 3 -49 3 -42 0 19 -7
15 -17 -38 -100 l-50 -78 0 40 c0 78 29 217 47 231 15 12 15 13 1 8 -14 -5
-15 -1 -7 33 5 21 14 69 19 108 11 71 20 85 56 85 19 0 24 -10 39 -76 9 -41
19 -74 21 -71 2 2 -2 33 -11 68 -21 89 -21 89 24 89 33 0 40 -4 45 -24 4 -15
39 -51 84 -87 99 -81 102 -83 102 -76 0 3 -38 35 -84 71 -100 79 -119 116 -57
116 84 0 255 -72 361 -151 l55 -41 -34 36 c-19 20 -39 36 -44 36 -4 0 -27 13
-50 28 -79 53 -210 102 -274 102 -40 0 -41 6 -6 42 l27 28 -35 -1 c-19 -1 -26
-3 -17 -6 16 -4 16 -7 -4 -34 -19 -25 -28 -29 -69 -29 -43 0 -47 2 -52 27 -3
16 0 32 6 36 7 5 -7 6 -30 4 -35 -4 -43 -2 -43 11 0 33 12 61 29 66 39 12 228
-3 291 -23z m-370 -28 c0 -39 -7 -45 -76 -82 -34 -18 -79 -51 -100 -74 l-39
-41 47 41 c27 22 63 48 80 56 30 14 34 14 50 0 10 -9 18 -19 18 -22 0 -3 -25
-19 -55 -35 -66 -34 -67 -47 -1 -15 25 13 47 21 49 18 4 -4 -17 -179 -28 -227
-5 -23 -11 -29 -24 -25 -24 6 -34 -11 -38 -62 -3 -29 -1 -36 7 -25 5 8 10 10
10 5 0 -6 -9 -18 -20 -28 -11 -9 -20 -25 -20 -35 0 -10 -4 -22 -9 -28 -5 -5
-12 -28 -16 -51 -5 -35 -4 -42 12 -46 15 -5 15 -5 -2 -4 -11 1 -26 -2 -32 -6
-26 -16 -12 -26 32 -23 49 3 70 -10 54 -34 -5 -8 -6 -34 -3 -58 10 -66 -5
-252 -20 -252 -13 0 -107 95 -139 140 l-18 25 12 -25 c7 -14 43 -57 81 -96 55
-57 68 -77 68 -102 0 -18 -5 -32 -12 -32 -19 0 -116 80 -156 129 -21 25 -51
67 -67 92 -28 45 -31 47 -84 52 -173 15 -381 41 -381 49 0 4 14 30 30 56 34
56 36 62 15 62 -22 0 -18 16 16 66 l31 46 48 -7 c38 -5 48 -3 53 9 5 11 0 16
-14 16 -27 0 -24 9 51 120 57 85 63 91 91 86 21 -3 32 1 39 14 15 28 12 40
-10 40 -11 0 -20 4 -20 8 0 5 22 40 48 78 46 66 49 69 86 67 33 -2 46 5 107
57 81 70 183 125 237 129 7 1 12 -11 12 -26z m104 -58 c8 -32 3 -41 -29 -47
-23 -5 -25 -2 -25 28 0 47 43 62 54 19z m-114 -25 c0 -5 -4 -10 -9 -10 -6 0
-13 5 -16 10 -3 6 1 10 9 10 9 0 16 -4 16 -10z m-88 -499 c-3 -23 -8 -28 -25
-24 -18 4 -19 3 -7 -6 9 -7 10 -11 3 -11 -17 0 -24 15 -17 35 4 9 13 14 20 11
8 -3 13 -2 13 2 -2 14 1 22 9 22 5 0 7 -13 4 -29z m2571 -656 c-3 -9 -8 -14
-10 -11 -3 3 -2 9 2 15 9 16 15 13 8 -4z m-830 -42 c3 -16 8 -35 12 -44 5 -13
-2 -18 -32 -24 -21 -4 -62 -15 -90 -25 -53 -18 -59 -16 -47 14 6 17 30 22 36
8 2 -4 17 -5 33 -1 l30 6 -27 11 c-33 14 -34 16 -7 53 15 22 28 29 53 29 28 0
34 -4 39 -27z m1204 -35 c-3 -8 -6 -5 -6 6 -1 11 2 17 5 13 3 -3 4 -12 1 -19z
m-693 -87 c3 -5 -3 -11 -14 -14 -13 -3 -20 0 -20 9 0 15 26 19 34 5z m846 -60
c0 -21 -36 -70 -62 -86 -25 -14 -28 -14 -28 -1 0 9 -4 16 -9 16 -13 0 -22 43
-11 54 6 6 15 3 24 -10 14 -18 15 -18 25 9 8 19 17 27 36 27 14 0 25 -4 25 -9z
m-220 -35 c22 -27 -5 -17 -31 10 -21 24 -22 26 -3 16 11 -6 26 -18 34 -26z
m72 -18 c-3 -11 3 -24 13 -32 11 -8 15 -18 11 -25 -9 -13 -40 9 -57 41 -10 19
-1 51 12 42 5 -3 9 1 9 8 0 10 2 10 9 -1 5 -7 6 -22 3 -33z m-792 -44 c0 -8
-4 -12 -10 -9 -5 3 -10 13 -10 21 0 8 5 12 10 9 6 -3 10 -13 10 -21z m215 -4
c3 -5 -1 -10 -10 -10 -9 0 -13 5 -10 10 3 6 8 10 10 10 2 0 7 -4 10 -10z m409
-15 c-10 -8 -23 -14 -29 -14 -5 0 -1 6 9 14 11 8 24 15 30 15 5 0 1 -7 -10
-15z m-670 -81 c-15 -26 -30 -42 -32 -35 -7 20 6 56 30 87 35 43 36 6 2 -52z
m848 54 c-17 -17 -15 -48 3 -48 8 0 19 -9 25 -20 13 -24 8 -25 -29 -6 -17 9
-27 22 -26 35 1 19 22 51 33 51 3 0 1 -5 -6 -12z m75 -32 c-4 -9 -11 -16 -18
-16 -6 0 -8 7 -5 16 3 9 6 21 6 27 0 8 3 8 11 0 7 -7 9 -19 6 -27z m-6022 -3
c-4 -16 -8 -34 -9 -41 -1 -7 -7 -17 -12 -22 -7 -7 -10 -4 -9 9 1 12 4 24 8 27
4 4 7 18 7 31 0 13 5 23 11 23 7 0 9 -10 4 -27z m5047 -28 c-9 -28 -18 -43
-20 -33 -3 17 25 94 33 87 2 -3 -4 -27 -13 -54z m-342 0 c0 -7 -7 -15 -15 -19
-8 -3 -15 -1 -15 4 0 6 -9 10 -20 10 -30 0 -24 18 8 22 33 4 42 1 42 -17z
m1225 -37 c14 -13 5 -11 -27 7 -27 15 -48 28 -48 31 0 8 56 -20 75 -38z m-390
13 c-3 -6 -11 -11 -17 -11 -6 0 -6 6 2 15 14 17 26 13 15 -4z m695 15 c0 -2
-8 -10 -17 -17 -16 -13 -17 -12 -4 4 13 16 21 21 21 13z m-33 -68 c-3 -8 -6
-5 -6 6 -1 11 2 17 5 13 3 -3 4 -12 1 -19z m-1107 -37 c0 -13 -29 -35 -37 -28
-7 8 15 37 28 37 5 0 9 -4 9 -9z m-5145 -20 c-3 -6 -11 -8 -17 -5 -6 4 -5 9 3
15 16 10 23 4 14 -10z m5498 -6 c-3 -9 -8 -14 -10 -11 -3 3 -2 9 2 15 9 16 15
13 8 -4z m754 -17 c-3 -8 -6 -5 -6 6 -1 11 2 17 5 13 3 -3 4 -12 1 -19z m41
-39 c9 -12 9 -16 -1 -16 -7 0 -14 9 -14 20 -1 11 -1 18 0 16 2 -2 8 -11 15
-20z m77 3 c-3 -3 -11 0 -18 7 -9 10 -8 11 6 5 10 -3 15 -9 12 -12z m-6385
-17 c0 -8 -7 -15 -16 -15 -14 0 -14 3 -4 15 7 8 14 15 16 15 2 0 4 -7 4 -15z
m-10 -49 c0 -3 -4 -8 -10 -11 -5 -3 -10 -1 -10 4 0 6 5 11 10 11 6 0 10 -2 10
-4z m-35 -16 c3 -5 1 -10 -4 -10 -6 0 -11 5 -11 10 0 6 2 10 4 10 3 0 8 -4 11
-10z m-3 -70 c-2 -16 -6 -30 -8 -30 -2 0 -4 14 -4 30 0 17 4 30 8 30 5 0 7
-13 4 -30z m4736 -20 c17 -11 32 -21 32 -23 0 -13 -55 5 -71 22 -26 27 -5 28
39 1z m-4843 -27 c-4 -16 -7 -39 -7 -53 2 -20 0 -22 -8 -10 -13 19 0 90 17 90
3 0 2 -12 -2 -27z m59 -155 c-15 -51 -25 -70 -31 -64 -3 3 2 24 12 46 20 44
31 53 19 18z m-220 -327 c-3 -45 -9 -80 -11 -77 -3 3 -2 41 2 86 4 45 9 79 12
76 2 -2 1 -41 -3 -85z m-16 -166 c-2 -41 -7 -75 -12 -75 -5 0 -6 21 -2 46 3
26 6 60 6 75 0 16 3 29 6 29 3 0 4 -34 2 -75z m200 -155 c2 -38 -1 -70 -6 -70
-5 0 -7 -13 -4 -29 2 -16 -1 -37 -7 -48 -9 -15 -10 -11 -11 23 0 67 12 194 19
194 4 0 8 -31 9 -70z m-13 -193 c-4 -13 -7 -49 -8 -80 -1 -38 -6 -56 -13 -53
-6 2 -17 -1 -23 -7 -6 -6 -11 -8 -11 -3 0 4 7 14 15 22 15 15 19 46 15 112 -1
23 3 32 14 32 12 0 15 -6 11 -23z m-6 -204 c3 -32 5 -77 5 -100 1 -24 3 -43 6
-43 3 0 6 -9 6 -19 0 -16 -4 -17 -18 -10 -19 10 -20 28 -3 42 7 6 6 10 -1 13
-7 3 -10 14 -7 24 3 11 -2 31 -11 45 -10 16 -12 25 -5 25 6 0 9 7 5 15 -3 8 0
15 6 15 7 0 6 5 -2 15 -6 8 -9 19 -5 25 13 22 21 8 24 -47z m-197 -170 c-10
-28 -10 -28 -12 -3 -2 23 -3 23 -16 -9 -14 -30 -13 -35 2 -52 15 -17 15 -19 1
-19 -33 0 -32 60 2 107 21 28 36 13 23 -24z m-24 -130 c0 -5 2 -16 6 -25 4 -9
6 -25 3 -35 -3 -11 -5 -8 -6 10 -1 23 -5 28 -23 25 -24 -3 -34 -28 -23 -56 5
-14 7 -14 15 -2 8 12 10 9 10 -10 0 -14 -5 -32 -10 -40 -8 -12 -10 -11 -10 7
0 12 -4 25 -10 28 -5 3 -10 19 -10 34 0 37 17 57 58 70 1 1 1 -2 0 -6z m108
-42 c-4 -6 -13 -11 -19 -11 -8 0 -7 3 2 9 8 5 10 14 6 22 -6 11 -5 11 5 2 7
-6 9 -16 6 -22z m-36 -15 c0 -2 -7 -6 -15 -10 -8 -3 -15 -1 -15 4 0 6 7 10 15
10 8 0 15 -2 15 -4z m96 -8 c4 -7 3 -8 -4 -4 -7 4 -12 2 -12 -3 0 -6 5 -11 10
-11 6 0 10 -5 10 -11 0 -5 -4 -8 -9 -4 -5 3 -11 -2 -13 -11 -2 -8 -8 1 -14 20
-10 32 -9 36 7 36 10 0 21 -5 25 -12z m107 6 c3 -4 2 -15 -3 -25 -7 -13 -6
-22 5 -33 9 -8 16 -33 18 -55 1 -23 6 -41 11 -41 5 0 7 -3 4 -6 -4 -3 -2 -19
2 -35 6 -21 6 -29 -2 -27 -6 2 -13 11 -14 19 -2 7 -6 32 -10 54 -4 22 -11 43
-16 46 -5 3 -10 17 -11 30 -1 13 -7 30 -14 37 -7 7 -10 19 -7 27 6 15 26 20
37 9z m-57 -34 c5 1 10 -3 12 -9 2 -6 -3 -8 -12 -5 -11 4 -16 0 -16 -14 0 -11
-7 -25 -15 -32 -9 -8 -15 -9 -15 -2 0 6 5 14 10 17 6 4 8 15 5 26 -8 24 4 47
15 29 4 -6 11 -11 16 -10z m-312 -100 c-5 -5 -10 3 -11 18 -1 22 0 24 9 8 6
-10 6 -22 2 -26z m52 -28 c-11 -10 -14 3 -7 38 l6 35 3 -33 c2 -19 1 -36 -2
-40z m364 -100 c0 -15 -2 -15 -10 -2 -13 20 -13 33 0 25 6 -3 10 -14 10 -23z
m-323 -14 c-3 -8 -6 -5 -6 6 -1 11 2 17 5 13 3 -3 4 -12 1 -19z m28 -66 c-3
-9 1 -12 15 -7 13 4 20 2 18 -5 -2 -7 6 -14 16 -16 45 -7 66 -15 66 -24 0 -6
-7 -10 -15 -10 -8 0 -15 -9 -15 -20 0 -11 -7 -20 -15 -20 -8 0 -15 -7 -15 -16
0 -22 -26 -46 -47 -42 -10 2 -18 -1 -18 -7 -1 -15 -24 -51 -26 -40 -5 39 -5
75 1 75 4 0 6 11 3 25 -2 14 -5 37 -8 52 -6 42 4 69 26 69 12 0 18 -5 14 -14z
m331 -68 c2 -12 -1 -13 -12 -3 -7 6 -11 16 -8 21 7 11 17 3 20 -18z m24 -190
c0 -32 -25 -61 -34 -39 -3 8 -12 12 -21 9 -21 -8 -19 1 8 30 29 32 47 32 47 0z
m-61 -53 c15 -10 16 -8 -70 -102 -14 -16 -29 -26 -32 -22 -4 3 -8 -5 -8 -18
-1 -21 -2 -20 -8 6 -4 20 -13 30 -26 32 -16 1 -16 1 -2 -3 12 -4 17 -16 17
-41 0 -29 -3 -33 -13 -24 -11 8 -18 3 -33 -24 -13 -24 -21 -31 -27 -22 -5 7
-7 0 -3 -19 7 -45 -12 -59 -43 -31 -15 13 -22 16 -19 7 4 -11 -2 -15 -27 -15
-18 0 -31 3 -28 8 7 12 -7 8 -38 -10 -16 -10 -29 -23 -29 -30 0 -7 -5 -13 -11
-13 -6 0 -8 7 -5 16 3 9 6 22 6 30 0 8 9 14 20 14 11 0 20 7 20 15 0 8 6 15
14 15 7 0 16 9 19 20 3 11 12 20 20 20 9 0 18 13 22 29 5 22 13 30 38 35 25 5
29 9 17 16 -12 8 -11 10 8 10 12 0 22 5 22 10 0 6 7 10 15 10 9 0 18 7 22 16
3 8 12 13 19 10 8 -3 14 -2 14 3 0 4 6 8 13 8 17 0 67 33 67 44 0 12 31 11 49
0z m-143 -193 c4 -7 3 -8 -4 -4 -7 4 -12 2 -12 -5 0 -7 -3 -10 -6 -6 -6 5 3
27 11 27 2 0 7 -5 11 -12z m-86 -118 c0 -5 -4 -10 -10 -10 -5 0 -10 5 -10 10
0 6 5 10 10 10 6 0 10 -4 10 -10z m-183 -79 c-5 -43 17 -67 28 -30 4 10 11 19
16 19 6 0 7 -4 4 -10 -3 -6 4 -10 17 -9 13 0 17 3 11 6 -7 2 -13 12 -13 21 0
14 2 15 9 3 8 -12 12 -13 26 -1 13 11 18 11 28 0 10 -10 8 -12 -7 -6 -12 4
-17 2 -13 -6 2 -7 -2 -19 -9 -26 -8 -7 -14 -11 -14 -8 0 3 -18 -14 -40 -37
-33 -33 -40 -38 -38 -21 2 11 -3 28 -11 37 -9 12 -11 30 -7 62 4 25 10 45 13
45 3 0 3 -18 0 -39z"/>
<path d="M4638 5863 c12 -2 32 -2 45 0 12 2 2 4 -23 4 -25 0 -35 -2 -22 -4z"/>
<path d="M4825 5832 c85 -32 149 -68 205 -117 l55 -47 -55 53 c-54 52 -164
112 -225 124 -16 3 -7 -3 20 -13z"/>
<path d="M4556 5581 c-37 -41 12 -88 59 -57 30 20 32 51 6 66 -29 15 -46 12
-65 -9z m61 -8 c2 -5 -5 -21 -16 -34 -15 -19 -22 -21 -32 -12 -9 9 -8 18 5 38
17 26 36 29 43 8z"/>
<path d="M4695 5576 c-19 -14 -19 -15 -2 -34 18 -19 18 -21 0 -31 -17 -10 -17
-10 3 -11 33 0 45 19 27 46 -8 13 -12 28 -8 34 9 14 2 13 -20 -4z"/>
<path d="M4874 5545 c-4 -11 -12 -23 -18 -27 -7 -5 -6 -8 3 -8 7 0 11 -6 7
-15 -4 -10 1 -15 14 -15 22 0 26 28 10 65 l-8 20 -8 -20z"/>
<path d="M4950 5525 c-11 -13 -10 -15 2 -10 9 4 19 -3 25 -17 11 -22 11 -22 9
6 -2 34 -17 43 -36 21z"/>
<path d="M4805 5521 c3 -6 -3 -14 -12 -20 -17 -10 -17 -10 0 -11 9 0 17 2 17
4 0 2 3 11 6 20 3 9 1 16 -6 16 -6 0 -9 -4 -5 -9z"/>
<path d="M5197 5479 c-20 -36 -16 -49 8 -25 9 9 20 16 24 16 4 0 7 9 7 20 0
30 -19 24 -39 -11z"/>
<path d="M5327 5470 c-30 -49 -14 -58 21 -11 16 22 18 30 8 34 -7 3 -20 -8
-29 -23z"/>
<path d="M5437 5445 c-21 -44 0 -49 26 -6 20 35 21 41 4 41 -7 0 -21 -16 -30
-35z"/>
<path d="M5534 5420 c5 -58 16 -62 16 -7 0 26 -4 47 -10 47 -6 0 -8 -18 -6
-40z"/>
<path d="M4709 5421 c23 -15 5 -38 -69 -87 -63 -42 -70 -50 -66 -73 3 -14 8
-47 12 -73 l6 -47 52 -10 c109 -21 128 -22 121 -12 -6 11 27 75 82 153 18 26
33 52 33 58 0 5 3 10 8 10 4 0 12 11 18 25 10 20 9 25 -5 29 -9 2 -26 7 -38
11 -14 4 -23 2 -23 -5 0 -6 -24 -48 -52 -94 -29 -46 -66 -105 -81 -131 -34
-57 -44 -52 -57 31 -19 113 -18 114 61 163 39 23 69 44 67 46 -2 1 -21 5 -43
9 -26 4 -35 3 -26 -3z"/>
<path d="M4980 5381 c8 -6 26 -11 40 -12 24 -2 24 -2 3 -6 -19 -4 -23 -11 -23
-39 0 -19 2 -34 5 -34 2 0 14 18 25 39 22 44 18 50 -33 57 -24 4 -28 2 -17 -5z"/>
<path d="M5133 5355 c0 -7 6 -11 14 -8 7 3 13 6 13 8 0 2 -6 5 -13 8 -8 3 -14
-1 -14 -8z"/>
<path d="M5258 5335 c2 -14 8 -23 12 -20 10 6 1 45 -10 45 -4 0 -5 -11 -2 -25z"/>
<path d="M5312 5325 c3 -5 8 -21 10 -35 2 -20 5 -22 10 -8 4 10 0 24 -10 35
-9 11 -14 14 -10 8z"/>
<path d="M5401 5304 c-29 -37 -27 -69 11 -141 27 -52 31 -66 23 -90 -7 -19
-19 -30 -40 -34 -25 -6 -23 -7 17 -8 40 -1 50 3 68 26 27 34 23 69 -16 150
-20 44 -24 63 -18 82 22 61 91 18 79 -48 -7 -41 1 -39 15 4 11 32 10 36 -17
60 -39 34 -94 34 -122 -1z"/>
<path d="M5290 5310 c0 -5 5 -10 11 -10 5 0 7 5 4 10 -3 6 -8 10 -11 10 -2 0
-4 -4 -4 -10z"/>
<path d="M5044 5218 c-31 -46 -66 -93 -76 -104 -19 -21 -19 -21 19 -28 56 -9
63 -8 63 10 0 9 9 29 20 44 l20 29 -22 15 c-12 9 -18 16 -13 17 33 2 60 11 67
22 6 9 12 9 30 -1 22 -13 22 -13 -1 8 -17 15 -27 17 -36 10 -10 -8 -12 -3 -10
25 1 19 1 35 -1 35 -1 0 -28 -37 -60 -82z m10 -90 c-3 -4 -15 -8 -27 -8 -15 0
-18 3 -9 8 17 11 43 11 36 0z m-44 -24 c0 -2 -9 -4 -21 -4 -11 0 -18 4 -14 10
5 8 35 3 35 -6z"/>
<path d="M4910 5270 c-8 -6 -26 -10 -40 -11 -16 -1 -19 -3 -8 -6 9 -2 18 -13
20 -25 3 -18 5 -17 26 12 25 34 26 45 2 30z"/>
<path d="M5186 5222 c-3 -5 1 -9 9 -9 8 0 12 4 9 9 -3 4 -7 8 -9 8 -2 0 -6 -4
-9 -8z"/>
<path d="M4904 5159 c-23 -25 -49 -40 -89 -50 -27 -6 -25 -7 16 -8 42 -1 49 2
74 35 30 39 29 56 -1 23z"/>
<path d="M5182 5135 c0 -16 2 -22 5 -12 2 9 2 23 0 30 -3 6 -5 -1 -5 -18z"/>
<path d="M5289 5089 l-26 -29 23 6 c14 4 32 0 42 -7 15 -12 15 -12 5 1 -6 8
-13 25 -15 36 -3 21 -4 21 -29 -7z"/>
<path d="M5180 5066 c0 -30 3 -34 21 -31 31 6 36 15 10 15 -18 0 -22 4 -18 20
3 11 1 23 -4 26 -5 3 -9 -11 -9 -30z"/>
<path d="M5190 5012 c0 -7 4 -12 10 -12 5 0 7 -6 4 -14 -3 -8 1 -18 8 -22 24
-15 37 -12 35 7 -1 10 -6 19 -11 19 -5 0 -18 7 -28 17 -11 9 -18 11 -18 5z"/>
<path d="M5262 4952 c-14 -15 -17 -22 -8 -20 8 2 21 -6 29 -16 11 -15 30 -21
78 -24 35 -2 75 1 88 6 20 7 15 9 -30 10 -66 0 -98 5 -96 12 1 3 -7 17 -18 30
l-20 25 -23 -23z"/>
<path d="M4811 4824 c0 -11 3 -14 6 -6 3 7 2 16 -1 19 -3 4 -6 -2 -5 -13z"/>
<path d="M5019 4803 c-13 -16 -12 -17 4 -4 16 13 21 21 13 21 -2 0 -10 -8 -17
-17z"/>
<path d="M4822 4780 c0 -14 2 -19 5 -12 2 6 2 18 0 25 -3 6 -5 1 -5 -13z"/>
<path d="M4908 4740 c-9 -6 -43 -17 -75 -25 l-58 -15 50 6 c42 5 139 43 110
43 -5 0 -18 -4 -27 -9z"/>
<path d="M4599 4709 c13 -5 58 -11 100 -14 l76 -4 -60 9 c-122 19 -142 20
-116 9z"/>
<path d="M4940 4479 c0 -5 5 -7 10 -4 6 3 10 8 10 11 0 2 -4 4 -10 4 -5 0 -10
-5 -10 -11z"/>
<path d="M5002 4483 c35 -6 61 -60 64 -137 2 -51 9 -68 56 -142 29 -46 60 -84
68 -84 8 0 38 -16 65 -35 87 -60 134 -72 97 -25 -21 28 -39 90 -25 90 5 0 18
-7 29 -15 24 -18 58 -20 51 -2 -22 54 -23 51 9 32 19 -11 11 0 -21 29 -28 26
-91 67 -141 91 -57 28 -94 52 -97 64 -2 10 -17 25 -33 32 -15 8 -38 30 -51 49
-35 55 -42 60 -71 59 l-27 -2 27 -4z"/>
<path d="M4870 4150 c6 -11 13 -20 16 -20 2 0 0 9 -6 20 -6 11 -13 20 -16 20
-2 0 0 -9 6 -20z"/>
<path d="M5268 3863 c6 -2 18 -2 25 0 6 3 1 5 -13 5 -14 0 -19 -2 -12 -5z"/>
<path d="M4825 3840 c-3 -5 -1 -10 4 -10 6 0 11 5 11 10 0 6 -2 10 -4 10 -3 0
-8 -4 -11 -10z"/>
<path d="M4180 5646 c0 -2 7 -7 16 -10 8 -3 12 -2 9 4 -6 10 -25 14 -25 6z"/>
<path d="M4270 5619 c9 -16 14 -18 26 -8 19 15 18 20 -3 12 -11 -4 -14 -3 -9
5 4 7 1 12 -9 12 -13 0 -14 -4 -5 -21z"/>
<path d="M4237 5616 c-4 -9 -1 -13 6 -10 7 2 12 -5 12 -20 0 -19 -3 -22 -13
-14 -9 8 -11 7 -6 -5 7 -19 -31 -43 -42 -26 -5 8 -10 6 -16 -5 -7 -12 -13 -14
-22 -7 -18 15 -149 -184 -140 -212 3 -11 12 -16 20 -13 19 7 18 -9 -2 -29 -9
-9 -23 -14 -30 -11 -8 3 -14 1 -14 -5 0 -6 -7 -9 -15 -6 -10 4 -28 -15 -57
-60 -23 -36 -51 -69 -63 -73 -17 -7 -15 -9 13 -9 17 -1 32 3 32 7 0 5 7 9 15
9 8 0 12 -4 10 -8 -6 -8 19 -19 46 -19 12 0 16 5 13 15 -4 9 6 32 22 53 32 42
35 51 20 72 -9 13 -9 13 5 2 14 -10 19 -8 34 14 13 20 14 28 5 34 -17 10 -3
31 15 24 10 -4 30 18 62 68 52 80 61 106 39 114 -8 3 -12 12 -9 20 6 16 18 10
18 -8 0 -26 26 -17 40 14 8 18 15 29 15 23 0 -5 8 3 16 19 15 27 15 30 -4 48
-16 17 -20 17 -25 4z m-87 -116 c0 -5 -2 -10 -4 -10 -3 0 -8 5 -11 10 -3 6 -1
10 4 10 6 0 11 -4 11 -10z m-60 -120 c0 -13 -7 -20 -20 -20 -11 0 -20 7 -20
16 0 8 4 13 9 9 5 -3 12 -1 16 5 10 16 15 12 15 -10z m-50 -30 c0 -5 -5 -10
-11 -10 -5 0 -7 5 -4 10 3 6 8 10 11 10 2 0 4 -4 4 -10z m25 -9 c3 -5 1 -12
-5 -16 -5 -3 -10 1 -10 9 0 18 6 21 15 7z m-77 -126 c-18 -6 -32 -16 -30 -23
3 -17 -15 -15 -21 2 -3 8 3 22 14 32 15 13 19 14 19 3 1 -10 4 -8 11 4 9 15
13 16 25 6 13 -11 10 -14 -18 -24z m27 -15 c4 -6 1 -9 -6 -8 -7 2 -13 -4 -14
-12 0 -8 -6 -14 -13 -12 -7 1 -12 -2 -12 -8 0 -5 -7 -7 -15 -4 -14 6 -13 8 2
20 10 7 14 14 8 15 -5 0 1 5 15 9 14 4 26 8 27 9 1 1 5 -4 8 -9z m-51 -75 c-4
-8 -8 -15 -10 -15 -2 0 -4 7 -4 15 0 8 4 15 10 15 5 0 7 -7 4 -15z"/>
<path d="M4368 5623 c7 -3 16 -2 19 1 4 3 -2 6 -13 5 -11 0 -14 -3 -6 -6z"/>
<path d="M4202 5294 c-47 -50 -84 -81 -109 -89 l-38 -13 62 -3 c39 -3 59 -1
53 6 -18 17 -10 40 28 80 63 68 86 95 80 95 -3 0 -37 -34 -76 -76z"/>
<path d="M3985 5300 c-10 -11 -16 -22 -13 -25 3 -3 13 4 23 15 10 11 16 22 13
25 -3 3 -13 -4 -23 -15z"/>
<path d="M4209 5174 c-44 -46 -81 -65 -144 -74 l-50 -7 74 -4 74 -4 37 50 c62
86 65 97 9 39z"/>
<path d="M1161 1534 c0 -11 3 -14 6 -6 3 7 2 16 -1 19 -3 4 -6 -2 -5 -13z"/>
<path d="M1120 1530 c0 -5 7 -7 15 -4 8 4 15 8 15 10 0 2 -7 4 -15 4 -8 0 -15
-4 -15 -10z"/>
<path d="M1050 1356 c0 -9 5 -16 10 -16 6 0 10 4 10 9 0 6 -4 13 -10 16 -5 3
-10 -1 -10 -9z"/>
<path d="M5215 7450 c3 -5 11 -10 16 -10 6 0 7 5 4 10 -3 6 -11 10 -16 10 -6
0 -7 -4 -4 -10z"/>
<path d="M5276 7405 c-3 -8 -1 -25 4 -37 5 -14 9 -17 10 -8 1 8 3 25 4 38 3
25 -9 30 -18 7z"/>
<path d="M5262 7336 c7 -8 17 -12 22 -9 4 3 2 9 -5 14 -22 13 -31 11 -17 -5z"/>
<path d="M5132 7327 c-9 -11 -10 -17 -2 -22 15 -9 23 -1 18 21 -3 15 -4 16
-16 1z"/>
<path d="M736 2235 c-3 -9 -6 -26 -5 -38 1 -14 4 -9 9 13 9 37 7 52 -4 25z"/>
<path d="M730 1575 c0 -8 2 -15 4 -15 2 0 6 7 10 15 3 8 1 15 -4 15 -6 0 -10
-7 -10 -15z"/>
</g>
</svg>
